<svg id="レイヤー_1" data-name="レイヤー 1" xmlns="http://www.w3.org/2000/svg" viewBox="0 0 100 20"><defs><style>.cls-1{fill:#231815;}.cls-2{fill:#90b023;}.cls-3{fill:#8c8c8c;}</style></defs><title>アートボード 1</title><path class="cls-1" d="M74.18,11.51V7.2a.4.4,0,0,0-.4-.4H72.49a.4.4,0,0,0-.4.4v4.31h0a2.33,2.33,0,0,1-4.66,0V7.76h0V7.2a.4.4,0,0,0-.4-.4H65.74a.4.4,0,0,0-.4.4v4.31h0a4.42,4.42,0,1,0,8.84,0Z"/><path class="cls-1" d="M32.59,10.92v4.32a.39.39,0,0,0,.4.39h1.29a.38.38,0,0,0,.39-.39V10.92h0a2.34,2.34,0,0,1,4.67,0v3.75h0v.57a.38.38,0,0,0,.39.39H41a.39.39,0,0,0,.4-.39V10.92h0a4.42,4.42,0,1,0-8.83,0Z"/><path class="cls-1" d="M98.8,7.27h0a4.42,4.42,0,0,0-6.4,4h0v4a.39.39,0,0,0,.4.39h1.29a.38.38,0,0,0,.39-.39V15h0V11.22a2.33,2.33,0,0,1,2.34-2.33,2.3,2.3,0,0,1,.94.2h0a.41.41,0,0,0,.55-.15L99,7.82A.41.41,0,0,0,98.8,7.27Z"/><path class="cls-1" d="M30.1,11.81a.4.4,0,0,0,.4-.4v-.49a4.42,4.42,0,0,0-8.83,0v.6A4.42,4.42,0,0,0,29,14.84a.4.4,0,0,0,0-.56l0,0-.87-.87,0,0a.4.4,0,0,0-.53,0,2.26,2.26,0,0,1-1.45.52,2.34,2.34,0,0,1-2.32-2Zm-6.23-1.6a2.33,2.33,0,0,1,4.44,0Z"/><path class="cls-1" d="M51.94,11.81a.4.4,0,0,0,.4-.4v-.49a4.42,4.42,0,0,0-8.83,0v.6a4.42,4.42,0,0,0,7.32,3.32.4.4,0,0,0,0-.56l0,0-.87-.87,0,0a.4.4,0,0,0-.53,0,2.26,2.26,0,0,1-1.46.52,2.33,2.33,0,0,1-2.31-2Zm-6.24-1.6a2.33,2.33,0,0,1,4.44,0Z"/><path class="cls-1" d="M85.9,6.5a4.42,4.42,0,0,0-4.42,4.42v.59a4.42,4.42,0,0,0,4.42,4.42,4.34,4.34,0,0,0,2.33-.67.4.4,0,0,0,.4.37h1.28a.39.39,0,0,0,.4-.39V10.92A4.41,4.41,0,0,0,85.9,6.5Zm2.33,5a2.34,2.34,0,1,1-4.67,0v-.59a2.34,2.34,0,0,1,4.67,0Z"/><path class="cls-1" d="M78.35,12.9a.65.65,0,0,0,.64.65H80a.4.4,0,0,1,.4.4v1.29a.39.39,0,0,1-.4.39H79a2.73,2.73,0,0,1-2.73-2.73V3a.4.4,0,0,1,.4-.4H78a.4.4,0,0,1,.4.4Z"/><path class="cls-1" d="M58.84,6.5A4.32,4.32,0,0,0,56.91,7a.4.4,0,0,1-.4-.4V3a.4.4,0,0,0-.4-.4H54.82a.39.39,0,0,0-.39.4v7.89h0v.59a4.42,4.42,0,1,0,8.83,0v-.59A4.42,4.42,0,0,0,58.84,6.5Zm2.33,5a2.33,2.33,0,1,1-4.66,0v-.59a2.33,2.33,0,1,1,4.66,0Z"/><path class="cls-2" d="M6.26,3.76H1.49a1.86,1.86,0,0,0-.15.56H5.6C5.81,4.12,6,3.94,6.26,3.76Z"/><path class="cls-2" d="M5.6,16.18H1.34a1.72,1.72,0,0,0,.15.56H6.26A7,7,0,0,1,5.6,16.18Z"/><path class="cls-2" d="M3.33,11.66h-2v.57H3.42Z"/><path class="cls-2" d="M3.28,10.76v-.23H1.33v.57h2C3.28,11,3.28,10.87,3.28,10.76Z"/><path class="cls-3" d="M16.58,5V4.5a1.87,1.87,0,0,0-1.87-1.87H13.15A7.5,7.5,0,0,1,16.58,5Z"/><path class="cls-2" d="M4,13.92H1.33v.57H4.27C4.17,14.3,4.07,14.11,4,13.92Z"/><path class="cls-2" d="M3.56,12.79H1.33v.57H3.74Q3.64,13.08,3.56,12.79Z"/><path class="cls-2" d="M8.41,2.63H3.2a1.85,1.85,0,0,0-1.33.57H7.13A7,7,0,0,1,8.41,2.63Z"/><path class="cls-2" d="M4.63,15.05H1.33v.57H5.07C4.91,15.43,4.77,15.25,4.63,15.05Z"/><path class="cls-3" d="M10.92,5.79A4,4,0,0,0,7.15,8.54h7.54A4,4,0,0,0,10.92,5.79Z"/><path class="cls-2" d="M4.27,6H1.33v.56H4C4.07,6.39,4.17,6.2,4.27,6Z"/><path class="cls-3" d="M10.78,14.72a3.94,3.94,0,0,0,1.09-.16,2.68,2.68,0,0,1,4.71-1v-2.3H6.85A4,4,0,0,0,10.78,14.72Z"/><path class="cls-2" d="M5.07,4.89H1.33v.56h3.3C4.77,5.26,4.91,5.07,5.07,4.89Z"/><path class="cls-2" d="M3.74,7.15H1.33v.56H3.56A5.22,5.22,0,0,1,3.74,7.15Z"/><path class="cls-2" d="M3.28,9.75c0-.12,0-.23,0-.34h-2V10H3.28Z"/><path class="cls-2" d="M3.42,8.28H1.33v.56h2Z"/><path class="cls-2" d="M1.87,17.31a1.84,1.84,0,0,0,1.33.56H8.41a7,7,0,0,1-1.28-.56Z"/><path class="cls-2" d="M16.58,13.55a2.68,2.68,0,0,0-4.79,1.65,2.69,2.69,0,0,0,1.78,2.52,2.66,2.66,0,0,0,.9.15,2.58,2.58,0,0,0,1.32-.35,2.67,2.67,0,0,0,1.36-2.32A2.72,2.72,0,0,0,16.58,13.55Z"/></svg>